# Blender 4.3.2
# www.blender.org
mtllib firedirt.mtl
o BezierCircle
v -0.631248 0.021812 -0.000000
v -0.625484 0.021812 -0.085636
v -0.608693 0.021812 -0.167776
v -0.581628 0.021812 -0.245668
v -0.545042 0.021812 -0.318558
v -0.499689 0.021812 -0.385694
v -0.446322 0.021812 -0.446322
v -0.385694 0.021812 -0.499689
v -0.318558 0.021812 -0.545042
v -0.245668 0.021812 -0.581628
v -0.167776 0.021812 -0.608693
v -0.085636 0.021812 -0.625484
v 0.000000 0.021812 -0.631248
v 0.085636 0.021812 -0.625484
v 0.167776 0.021812 -0.608693
v 0.245668 0.021812 -0.581628
v 0.318558 0.021812 -0.545042
v 0.385694 0.021812 -0.499689
v 0.446322 0.021812 -0.446322
v 0.499689 0.021812 -0.385694
v 0.545042 0.021812 -0.318558
v 0.581628 0.021812 -0.245668
v 0.608693 0.021812 -0.167776
v 0.625484 0.021812 -0.085636
v 0.631248 0.021812 -0.000000
v 0.625484 0.021812 0.085636
v 0.608693 0.021812 0.167776
v 0.581628 0.021812 0.245668
v 0.545042 0.021812 0.318558
v 0.499689 0.021812 0.385694
v 0.446322 0.021812 0.446322
v 0.385694 0.021812 0.499689
v 0.318558 0.021812 0.545042
v 0.245668 0.021812 0.581628
v 0.167776 0.021812 0.608693
v 0.085636 0.021812 0.625484
v 0.000000 0.021812 0.631248
v -0.085636 0.021812 0.625484
v -0.167776 0.021812 0.608693
v -0.245668 0.021812 0.581628
v -0.318558 0.021812 0.545042
v -0.385694 0.021812 0.499689
v -0.446322 0.021812 0.446322
v -0.499689 0.021812 0.385694
v -0.545042 0.021812 0.318558
v -0.581628 0.021812 0.245668
v -0.608693 0.021812 0.167776
v -0.625484 0.021812 0.085636
l 1 2
l 2 3
l 3 4
l 4 5
l 5 6
l 6 7
l 7 8
l 8 9
l 9 10
l 10 11
l 11 12
l 12 13
l 13 14
l 14 15
l 15 16
l 16 17
l 17 18
l 18 19
l 19 20
l 20 21
l 21 22
l 22 23
l 23 24
l 24 25
l 25 26
l 26 27
l 27 28
l 28 29
l 29 30
l 30 31
l 31 32
l 32 33
l 33 34
l 34 35
l 35 36
l 36 37
l 37 38
l 38 39
l 39 40
l 40 41
l 41 42
l 42 43
l 43 44
l 44 45
l 45 46
l 46 47
l 47 48
l 1 48
o Circle
v 0.000000 0.596713 0.054065
v -0.116435 0.585245 0.054040
v -0.228396 0.551282 0.053967
v -0.331580 0.496129 0.053849
v -0.422021 0.421906 0.053689
v -0.496244 0.331466 0.053494
v -0.551397 0.228282 0.053272
v -0.585360 0.116321 0.053031
v -0.596828 -0.000114 0.052780
v -0.585360 -0.116548 0.052529
v -0.551397 -0.228509 0.052288
v -0.496244 -0.331693 0.052066
v -0.422021 -0.422134 0.051871
v -0.331580 -0.496357 0.051711
v -0.228396 -0.551509 0.051592
v -0.116435 -0.585472 0.051519
v -0.000000 -0.596940 0.051495
v 0.116435 -0.585472 0.051519
v 0.228396 -0.551509 0.051592
v 0.331580 -0.496357 0.051711
v 0.422021 -0.422134 0.051871
v 0.496244 -0.331693 0.052066
v 0.551397 -0.228509 0.052288
v 0.585360 -0.116548 0.052529
v 0.596828 -0.000114 0.052780
v 0.585360 0.116321 0.053031
v 0.551397 0.228282 0.053272
v 0.496244 0.331466 0.053494
v 0.422021 0.421906 0.053689
v 0.331580 0.496129 0.053849
v 0.228396 0.551282 0.053967
v 0.116435 0.585245 0.054040
v -0.116435 0.585267 0.044007
v 0.000000 0.596735 0.044032
v -0.228396 0.551304 0.043934
v -0.331580 0.496151 0.043816
v -0.422021 0.421928 0.043656
v -0.496244 0.331487 0.043461
v -0.551397 0.228303 0.043239
v -0.585360 0.116343 0.042998
v -0.596828 -0.000092 0.042747
v -0.585360 -0.116527 0.042496
v -0.551397 -0.228488 0.042255
v -0.496244 -0.331671 0.042033
v -0.422021 -0.422112 0.041838
v -0.331580 -0.496335 0.041678
v -0.228396 -0.551488 0.041559
v -0.116435 -0.585451 0.041486
v -0.000000 -0.596919 0.041462
v 0.116435 -0.585451 0.041486
v 0.228396 -0.551488 0.041559
v 0.331580 -0.496335 0.041678
v 0.422021 -0.422112 0.041838
v 0.496244 -0.331671 0.042033
v 0.551397 -0.228488 0.042255
v 0.585360 -0.116527 0.042496
v 0.596828 -0.000092 0.042747
v 0.585360 0.116343 0.042998
v 0.551397 0.228303 0.043239
v 0.496244 0.331487 0.043461
v 0.422021 0.421928 0.043656
v 0.331580 0.496151 0.043816
v 0.228396 0.551304 0.043934
v 0.116435 0.585267 0.044007
v -0.116435 0.585441 -0.036764
v 0.000000 0.596909 -0.036740
v -0.228396 0.551478 -0.036837
v -0.331580 0.496325 -0.036956
v -0.422021 0.422102 -0.037116
v -0.496244 0.331661 -0.037311
v -0.551397 0.228477 -0.037533
v -0.585360 0.116517 -0.037774
v -0.596828 0.000082 -0.038025
v -0.585360 -0.116353 -0.038276
v -0.551397 -0.228314 -0.038517
v -0.496244 -0.331497 -0.038739
v -0.422021 -0.421938 -0.038934
v -0.331580 -0.496161 -0.039094
v -0.228396 -0.551314 -0.039212
v -0.116435 -0.585277 -0.039285
v -0.000000 -0.596745 -0.039310
v 0.116435 -0.585277 -0.039285
v 0.228396 -0.551314 -0.039212
v 0.331580 -0.496161 -0.039094
v 0.422021 -0.421938 -0.038934
v 0.496244 -0.331497 -0.038739
v 0.551397 -0.228314 -0.038517
v 0.585360 -0.116353 -0.038276
v 0.596828 0.000082 -0.038025
v 0.585360 0.116517 -0.037774
v 0.551397 0.228477 -0.037533
v 0.496244 0.331661 -0.037311
v 0.422021 0.422102 -0.037116
v 0.331580 0.496325 -0.036956
v 0.228396 0.551478 -0.036837
v 0.116435 0.585441 -0.036764
vn 0.0980 -0.9952 -0.0021
vn -0.0000 -0.0022 1.0000
vn -0.2903 -0.9569 -0.0021
vn -0.2903 0.9569 0.0021
vn 0.7730 -0.6344 -0.0014
vn -0.0980 -0.9952 -0.0021
vn -0.4714 0.8819 0.0019
vn 0.8819 -0.4714 -0.0010
vn -0.6344 0.7730 0.0017
vn 0.9569 -0.2903 -0.0006
vn -0.7730 0.6344 0.0014
vn 0.9952 -0.0980 -0.0002
vn -0.8819 0.4714 0.0010
vn 0.9952 0.0980 0.0002
vn -0.9569 0.2903 0.0006
vn 0.9569 0.2903 0.0006
vn -0.9952 0.0980 0.0002
vn 0.8819 0.4714 0.0010
vn -0.9952 -0.0980 -0.0002
vn 0.7730 0.6344 0.0014
vn -0.9569 -0.2903 -0.0006
vn 0.6344 0.7730 0.0017
vn -0.8819 -0.4714 -0.0010
vn 0.4714 0.8819 0.0019
vn -0.7730 -0.6344 -0.0014
vn 0.2903 0.9569 0.0021
vn 0.2903 -0.9569 -0.0021
vn -0.6344 -0.7730 -0.0017
vn 0.0980 0.9952 0.0021
vn 0.4714 -0.8819 -0.0019
vn -0.4714 -0.8819 -0.0019
vn -0.0980 0.9952 0.0021
vn 0.6344 -0.7730 -0.0017
vn -0.0000 0.0022 -1.0000
vt 0.000000 0.000000
s 1
usemtl Material.003
f 66/1/1 65/1/1 129/1/1 130/1/1
f 81/1/2 83/1/2 84/1/2 85/1/2 86/1/2 87/1/2 88/1/2 89/1/2 90/1/2 91/1/2 92/1/2 93/1/2 94/1/2 95/1/2 96/1/2 97/1/2 98/1/2 99/1/2 100/1/2 101/1/2 102/1/2 103/1/2 104/1/2 105/1/2 106/1/2 107/1/2 108/1/2 109/1/2 110/1/2 111/1/2 112/1/2 82/1/2
f 79/1/3 80/1/3 112/1/3 111/1/3
f 66/1/4 67/1/4 99/1/4 98/1/4
f 53/1/5 54/1/5 86/1/5 85/1/5
f 80/1/6 49/1/6 82/1/6 112/1/6
f 67/1/7 68/1/7 100/1/7 99/1/7
f 54/1/8 55/1/8 87/1/8 86/1/8
f 68/1/9 69/1/9 101/1/9 100/1/9
f 55/1/10 56/1/10 88/1/10 87/1/10
f 69/1/11 70/1/11 102/1/11 101/1/11
f 56/1/12 57/1/12 89/1/12 88/1/12
f 70/1/13 71/1/13 103/1/13 102/1/13
f 57/1/14 58/1/14 90/1/14 89/1/14
f 71/1/15 72/1/15 104/1/15 103/1/15
f 58/1/16 59/1/16 91/1/16 90/1/16
f 72/1/17 73/1/17 105/1/17 104/1/17
f 59/1/18 60/1/18 92/1/18 91/1/18
f 73/1/19 74/1/19 106/1/19 105/1/19
f 60/1/20 61/1/20 93/1/20 92/1/20
f 74/1/21 75/1/21 107/1/21 106/1/21
f 61/1/22 62/1/22 94/1/22 93/1/22
f 75/1/23 76/1/23 108/1/23 107/1/23
f 62/1/24 63/1/24 95/1/24 94/1/24
f 49/1/1 50/1/1 81/1/1 82/1/1
f 76/1/25 77/1/25 109/1/25 108/1/25
f 63/1/26 64/1/26 96/1/26 95/1/26
f 50/1/27 51/1/27 83/1/27 81/1/27
f 77/1/28 78/1/28 110/1/28 109/1/28
f 64/1/29 65/1/29 97/1/29 96/1/29
f 51/1/30 52/1/30 84/1/30 83/1/30
f 78/1/31 79/1/31 111/1/31 110/1/31
f 65/1/32 66/1/32 98/1/32 97/1/32
f 52/1/33 53/1/33 85/1/33 84/1/33
f 113/1/34 114/1/34 144/1/34 143/1/34 142/1/34 141/1/34 140/1/34 139/1/34 138/1/34 137/1/34 136/1/34 135/1/34 134/1/34 133/1/34 132/1/34 131/1/34 130/1/34 129/1/34 128/1/34 127/1/34 126/1/34 125/1/34 124/1/34 123/1/34 122/1/34 121/1/34 120/1/34 119/1/34 118/1/34 117/1/34 116/1/34 115/1/34
f 53/1/9 52/1/9 116/1/9 117/1/9
f 80/1/26 79/1/26 143/1/26 144/1/26
f 67/1/27 66/1/27 130/1/27 131/1/27
f 54/1/11 53/1/11 117/1/11 118/1/11
f 49/1/29 80/1/29 144/1/29 114/1/29
f 68/1/30 67/1/30 131/1/30 132/1/30
f 55/1/13 54/1/13 118/1/13 119/1/13
f 69/1/33 68/1/33 132/1/33 133/1/33
f 56/1/15 55/1/15 119/1/15 120/1/15
f 70/1/5 69/1/5 133/1/5 134/1/5
f 57/1/17 56/1/17 120/1/17 121/1/17
f 71/1/8 70/1/8 134/1/8 135/1/8
f 58/1/19 57/1/19 121/1/19 122/1/19
f 72/1/10 71/1/10 135/1/10 136/1/10
f 59/1/21 58/1/21 122/1/21 123/1/21
f 73/1/12 72/1/12 136/1/12 137/1/12
f 60/1/23 59/1/23 123/1/23 124/1/23
f 74/1/14 73/1/14 137/1/14 138/1/14
f 61/1/25 60/1/25 124/1/25 125/1/25
f 75/1/16 74/1/16 138/1/16 139/1/16
f 62/1/28 61/1/28 125/1/28 126/1/28
f 76/1/18 75/1/18 139/1/18 140/1/18
f 63/1/31 62/1/31 126/1/31 127/1/31
f 50/1/32 49/1/32 114/1/32 113/1/32
f 77/1/20 76/1/20 140/1/20 141/1/20
f 64/1/3 63/1/3 127/1/3 128/1/3
f 51/1/4 50/1/4 113/1/4 115/1/4
f 78/1/22 77/1/22 141/1/22 142/1/22
f 65/1/6 64/1/6 128/1/6 129/1/6
f 52/1/7 51/1/7 115/1/7 116/1/7
f 79/1/24 78/1/24 142/1/24 143/1/24
